<mxfile host="www.draw.io" modified="2020-01-08T03:54:24.391Z" agent="Mozilla/5.0 (Windows NT 6.1; Win64; x64) AppleWebKit/537.36 (KHTML, like Gecko) Chrome/79.0.3945.88 Safari/537.36" etag="QgioU8tlTU-tqmV6uxwv" version="12.4.9" type="github">
  <diagram id="0WB9vr_3PHV0GKWeYEQN" name="第 1 页">
    <mxGraphModel dx="1422" dy="794" grid="1" gridSize="10" guides="1" tooltips="1" connect="1" arrows="1" fold="1" page="1" pageScale="1" pageWidth="827" pageHeight="1169" math="0" shadow="0">
      <root>
        <mxCell id="0"/>
        <mxCell id="1" parent="0"/>
        <mxCell id="CdLjifCXjquY_j_QiCDK-1" style="edgeStyle=orthogonalEdgeStyle;rounded=0;orthogonalLoop=1;jettySize=auto;html=1;" edge="1" parent="1" source="CdLjifCXjquY_j_QiCDK-2" target="CdLjifCXjquY_j_QiCDK-16">
          <mxGeometry relative="1" as="geometry"/>
        </mxCell>
        <mxCell id="CdLjifCXjquY_j_QiCDK-2" value="坡度分析" style="rounded=0;whiteSpace=wrap;html=1;" vertex="1" parent="1">
          <mxGeometry x="30" y="20" width="80" height="50" as="geometry"/>
        </mxCell>
        <mxCell id="CdLjifCXjquY_j_QiCDK-3" style="edgeStyle=orthogonalEdgeStyle;rounded=0;orthogonalLoop=1;jettySize=auto;html=1;entryX=0.5;entryY=0;entryDx=0;entryDy=0;" edge="1" parent="1" source="CdLjifCXjquY_j_QiCDK-4" target="CdLjifCXjquY_j_QiCDK-27">
          <mxGeometry relative="1" as="geometry"/>
        </mxCell>
        <mxCell id="CdLjifCXjquY_j_QiCDK-4" value="水资源评价" style="rounded=0;whiteSpace=wrap;html=1;" vertex="1" parent="1">
          <mxGeometry x="240" y="120" width="80" height="50" as="geometry"/>
        </mxCell>
        <mxCell id="CdLjifCXjquY_j_QiCDK-5" style="edgeStyle=orthogonalEdgeStyle;rounded=0;orthogonalLoop=1;jettySize=auto;html=1;entryX=0.5;entryY=0;entryDx=0;entryDy=0;" edge="1" parent="1" source="CdLjifCXjquY_j_QiCDK-6" target="CdLjifCXjquY_j_QiCDK-29">
          <mxGeometry relative="1" as="geometry">
            <Array as="points">
              <mxPoint x="390" y="310"/>
              <mxPoint x="325" y="310"/>
            </Array>
          </mxGeometry>
        </mxCell>
        <mxCell id="CdLjifCXjquY_j_QiCDK-6" value="气候评价&lt;br&gt;（光热条件）" style="rounded=0;whiteSpace=wrap;html=1;" vertex="1" parent="1">
          <mxGeometry x="350" y="120" width="80" height="50" as="geometry"/>
        </mxCell>
        <mxCell id="CdLjifCXjquY_j_QiCDK-7" style="edgeStyle=orthogonalEdgeStyle;rounded=0;orthogonalLoop=1;jettySize=auto;html=1;entryX=0.5;entryY=0;entryDx=0;entryDy=0;" edge="1" parent="1" source="CdLjifCXjquY_j_QiCDK-8" target="CdLjifCXjquY_j_QiCDK-31">
          <mxGeometry relative="1" as="geometry">
            <Array as="points">
              <mxPoint x="745" y="310"/>
              <mxPoint x="435" y="310"/>
            </Array>
          </mxGeometry>
        </mxCell>
        <mxCell id="CdLjifCXjquY_j_QiCDK-8" value="灾害评价&lt;br&gt;（发生频率）" style="rounded=0;whiteSpace=wrap;html=1;" vertex="1" parent="1">
          <mxGeometry x="705" y="120" width="80" height="50" as="geometry"/>
        </mxCell>
        <mxCell id="CdLjifCXjquY_j_QiCDK-9" style="edgeStyle=orthogonalEdgeStyle;rounded=0;orthogonalLoop=1;jettySize=auto;html=1;entryX=0.5;entryY=0;entryDx=0;entryDy=0;" edge="1" parent="1" source="CdLjifCXjquY_j_QiCDK-10" target="CdLjifCXjquY_j_QiCDK-31">
          <mxGeometry relative="1" as="geometry">
            <Array as="points">
              <mxPoint x="630" y="310"/>
              <mxPoint x="435" y="310"/>
            </Array>
          </mxGeometry>
        </mxCell>
        <mxCell id="CdLjifCXjquY_j_QiCDK-10" value="生态评价&lt;br&gt;（盐渍化敏感性）" style="rounded=0;whiteSpace=wrap;html=1;" vertex="1" parent="1">
          <mxGeometry x="580" y="120" width="100" height="50" as="geometry"/>
        </mxCell>
        <mxCell id="CdLjifCXjquY_j_QiCDK-11" style="edgeStyle=orthogonalEdgeStyle;rounded=0;orthogonalLoop=1;jettySize=auto;html=1;" edge="1" parent="1" source="CdLjifCXjquY_j_QiCDK-12" target="CdLjifCXjquY_j_QiCDK-31">
          <mxGeometry relative="1" as="geometry"/>
        </mxCell>
        <mxCell id="CdLjifCXjquY_j_QiCDK-12" value="环境评价&lt;br&gt;（土壤环境容量）" style="rounded=0;whiteSpace=wrap;html=1;" vertex="1" parent="1">
          <mxGeometry x="460" y="120" width="100" height="50" as="geometry"/>
        </mxCell>
        <mxCell id="CdLjifCXjquY_j_QiCDK-13" style="edgeStyle=orthogonalEdgeStyle;rounded=0;orthogonalLoop=1;jettySize=auto;html=1;exitX=0.5;exitY=1;exitDx=0;exitDy=0;entryX=0.5;entryY=0;entryDx=0;entryDy=0;" edge="1" parent="1" source="CdLjifCXjquY_j_QiCDK-14" target="CdLjifCXjquY_j_QiCDK-16">
          <mxGeometry relative="1" as="geometry"/>
        </mxCell>
        <mxCell id="CdLjifCXjquY_j_QiCDK-14" value="土壤质地数据" style="rounded=0;whiteSpace=wrap;html=1;" vertex="1" parent="1">
          <mxGeometry x="130" y="20" width="90" height="50" as="geometry"/>
        </mxCell>
        <mxCell id="CdLjifCXjquY_j_QiCDK-15" style="edgeStyle=orthogonalEdgeStyle;rounded=0;orthogonalLoop=1;jettySize=auto;html=1;entryX=0.5;entryY=0;entryDx=0;entryDy=0;" edge="1" parent="1" source="CdLjifCXjquY_j_QiCDK-16" target="CdLjifCXjquY_j_QiCDK-27">
          <mxGeometry relative="1" as="geometry"/>
        </mxCell>
        <mxCell id="CdLjifCXjquY_j_QiCDK-16" value="土地资源评价" style="rounded=0;whiteSpace=wrap;html=1;" vertex="1" parent="1">
          <mxGeometry x="60" y="120" width="130" height="50" as="geometry"/>
        </mxCell>
        <mxCell id="CdLjifCXjquY_j_QiCDK-17" style="edgeStyle=orthogonalEdgeStyle;rounded=0;orthogonalLoop=1;jettySize=auto;html=1;entryX=0.5;entryY=0;entryDx=0;entryDy=0;" edge="1" parent="1" source="CdLjifCXjquY_j_QiCDK-18" target="CdLjifCXjquY_j_QiCDK-4">
          <mxGeometry relative="1" as="geometry"/>
        </mxCell>
        <mxCell id="CdLjifCXjquY_j_QiCDK-18" value="降水量&lt;br&gt;或干旱指数" style="rounded=0;whiteSpace=wrap;html=1;" vertex="1" parent="1">
          <mxGeometry x="235" y="20" width="90" height="50" as="geometry"/>
        </mxCell>
        <mxCell id="CdLjifCXjquY_j_QiCDK-19" style="edgeStyle=orthogonalEdgeStyle;rounded=0;orthogonalLoop=1;jettySize=auto;html=1;" edge="1" parent="1" source="CdLjifCXjquY_j_QiCDK-20" target="CdLjifCXjquY_j_QiCDK-6">
          <mxGeometry relative="1" as="geometry"/>
        </mxCell>
        <mxCell id="CdLjifCXjquY_j_QiCDK-20" value="积温图层" style="rounded=0;whiteSpace=wrap;html=1;" vertex="1" parent="1">
          <mxGeometry x="345" y="20" width="90" height="50" as="geometry"/>
        </mxCell>
        <mxCell id="CdLjifCXjquY_j_QiCDK-21" style="edgeStyle=orthogonalEdgeStyle;rounded=0;orthogonalLoop=1;jettySize=auto;html=1;entryX=0.5;entryY=0;entryDx=0;entryDy=0;" edge="1" parent="1" source="CdLjifCXjquY_j_QiCDK-22" target="CdLjifCXjquY_j_QiCDK-12">
          <mxGeometry relative="1" as="geometry"/>
        </mxCell>
        <mxCell id="CdLjifCXjquY_j_QiCDK-22" value="污染物含量" style="rounded=0;whiteSpace=wrap;html=1;" vertex="1" parent="1">
          <mxGeometry x="465" y="20" width="90" height="50" as="geometry"/>
        </mxCell>
        <mxCell id="CdLjifCXjquY_j_QiCDK-23" value="" style="edgeStyle=orthogonalEdgeStyle;rounded=0;orthogonalLoop=1;jettySize=auto;html=1;" edge="1" parent="1" target="CdLjifCXjquY_j_QiCDK-8">
          <mxGeometry relative="1" as="geometry">
            <mxPoint x="745" y="70" as="sourcePoint"/>
          </mxGeometry>
        </mxCell>
        <mxCell id="CdLjifCXjquY_j_QiCDK-24" value="" style="edgeStyle=orthogonalEdgeStyle;rounded=0;orthogonalLoop=1;jettySize=auto;html=1;" edge="1" parent="1" source="CdLjifCXjquY_j_QiCDK-25" target="CdLjifCXjquY_j_QiCDK-10">
          <mxGeometry relative="1" as="geometry"/>
        </mxCell>
        <mxCell id="CdLjifCXjquY_j_QiCDK-25" value="生态保护红线？" style="rounded=0;whiteSpace=wrap;html=1;" vertex="1" parent="1">
          <mxGeometry x="585" y="20" width="90" height="50" as="geometry"/>
        </mxCell>
        <mxCell id="CdLjifCXjquY_j_QiCDK-26" style="edgeStyle=orthogonalEdgeStyle;rounded=0;orthogonalLoop=1;jettySize=auto;html=1;entryX=0.5;entryY=0;entryDx=0;entryDy=0;" edge="1" parent="1" source="CdLjifCXjquY_j_QiCDK-27" target="CdLjifCXjquY_j_QiCDK-29">
          <mxGeometry relative="1" as="geometry"/>
        </mxCell>
        <mxCell id="CdLjifCXjquY_j_QiCDK-27" value="水土资源基础&lt;br&gt;判别矩阵" style="rounded=0;whiteSpace=wrap;html=1;" vertex="1" parent="1">
          <mxGeometry x="140" y="230" width="130" height="50" as="geometry"/>
        </mxCell>
        <mxCell id="CdLjifCXjquY_j_QiCDK-28" style="edgeStyle=orthogonalEdgeStyle;rounded=0;orthogonalLoop=1;jettySize=auto;html=1;entryX=0.5;entryY=0;entryDx=0;entryDy=0;" edge="1" parent="1" source="CdLjifCXjquY_j_QiCDK-29" target="CdLjifCXjquY_j_QiCDK-31">
          <mxGeometry relative="1" as="geometry"/>
        </mxCell>
        <mxCell id="CdLjifCXjquY_j_QiCDK-29" value="初判&lt;br&gt;农业生产条件等级" style="rounded=0;whiteSpace=wrap;html=1;" vertex="1" parent="1">
          <mxGeometry x="260" y="340" width="130" height="50" as="geometry"/>
        </mxCell>
        <mxCell id="CdLjifCXjquY_j_QiCDK-30" value="" style="edgeStyle=orthogonalEdgeStyle;rounded=0;orthogonalLoop=1;jettySize=auto;html=1;" edge="1" parent="1" source="CdLjifCXjquY_j_QiCDK-31" target="CdLjifCXjquY_j_QiCDK-32">
          <mxGeometry relative="1" as="geometry"/>
        </mxCell>
        <mxCell id="CdLjifCXjquY_j_QiCDK-31" value="修正&lt;br&gt;农业生产条件等级" style="rounded=0;whiteSpace=wrap;html=1;" vertex="1" parent="1">
          <mxGeometry x="370" y="450" width="130" height="50" as="geometry"/>
        </mxCell>
        <mxCell id="CdLjifCXjquY_j_QiCDK-32" value="确定适宜性等级" style="rounded=0;whiteSpace=wrap;html=1;" vertex="1" parent="1">
          <mxGeometry x="370" y="540" width="130" height="50" as="geometry"/>
        </mxCell>
      </root>
    </mxGraphModel>
  </diagram>
</mxfile>
